<svg width="334" height="235" xmlns="http://www.w3.org/2000/svg" xmlns:xlink="http://www.w3.org/1999/xlink" xml:space="preserve" overflow="hidden"><g><path d="M0 235 308.609 235 308.609 0 0 0Z" fill="#FFFFFF" transform="matrix(1.082 0 0 1 0.0418186 0)"/><path d="M28.4879 91.6228 143.84 91.6228 143.84 35.3938 28.4879 35.3938Z" fill="#FFFFFF" transform="matrix(1.082 0 0 1 0.0418186 0)"/><g><path d="M28.4879 66.3399 29.912 66.3133 30.2285 66.2815 31.0196 66.3717 32.1273 66.3412 32.7602 66.5744 33.0767 66.8913 33.2349 66.7696 33.3931 66.3961 33.7096 66.0363 33.8678 66.027 34.026 66.1766 34.1843 66.0589 34.5008 65.7482 34.659 65.5725 34.8172 65.5128 34.9755 65.5575 35.2919 65.4265 35.4502 65.4548 36.2413 66.2505 36.3996 66.3536 36.5578 66.3828 36.716 66.2651 37.1907 66.2664 37.349 66.3947 37.5072 66.6182 37.6654 67.0855 37.8237 67.3696 37.9819 67.2661 38.1401 67.0621 38.2983 66.955 38.4566 67.3904 38.7731 68.7432 38.9313 68.8583 39.0895 68.6927 39.2478 68.4095 39.5642 66.9262 39.7225 67.001 40.0389 69.3548 40.1971 69.9955 40.3554 70.1283 40.5136 69.7393 40.6719 70.4619 40.8301 71.6882 41.1466 75.2664 41.3048 77.5467 41.463 77.5688 41.7795 71.012 41.9377 69.6889 42.096 69.0862 42.2542 68.7574 42.4124 68.5781 42.5706 68.5613 42.7289 68.906 43.0454 70.0022 43.2036 70.1849 43.3618 70.1402 43.5201 69.9146 43.8365 69.1317 44.153 68.4202 44.4697 68.1002 44.7861 67.9422 45.2605 67.9542 45.4189 67.8688 45.8937 67.3864 46.3681 66.7607 46.6849 66.3138 47.0013 66.0726 47.1593 66.0708 47.4757 66.1682 47.7926 66.1518 48.5833 65.8022 49.2166 65.6442 49.3746 65.6796 49.691 65.8991 50.1658 66.5439 50.957 67.5661 51.1154 67.655 51.2734 67.478 52.381 64.5539 52.6974 63.933 52.8559 63.6715 53.0143 63.1993 53.3307 61.6416 54.5963 54.1029 54.7547 52.7125 54.9127 53.0798 55.0711 50.114 55.3875 65.3247 55.5459 65.5048 55.7039 65.23 56.0203 69.9491 56.1787 70.6164 56.3372 70.2991 56.4951 69.6083 56.6536 68.3794 56.8115 66.1407 56.97 64.6092 57.1279 63.6281 57.2864 63.1263 57.4448 63.3551 57.6028 63.9498 57.9192 66.223 58.0776 66.8833 58.394 67.663 58.5524 67.817 58.7104 67.0722 58.8688 65.3486 59.0268 65.4212 59.1852 65.9575 59.3432 65.9898 59.5016 66.1832 59.9764 66.3629 60.2928 66.2416 60.4508 66.1885 60.7677 66.2235 61.0841 66.2779 62.1917 66.2646 62.8245 66.2863 63.2993 66.2903 65.3562 66.3138 66.1474 66.2801 66.9386 66.2775 67.4134 66.3045 67.5714 66.3686 67.7298 66.1523 67.8878 66.2208 68.0462 66.4695 68.3626 66.2753 68.679 66.3014 68.9954 66.2394 69.6287 66.2841 70.1031 66.3018 70.2615 66.3169 70.5779 66.4098 70.8943 66.3651 71.0527 66.3739 71.2111 66.4355 71.5275 66.6837 71.6855 66.7426 72.0019 66.7235 72.1603 66.5412 72.3188 66.2766 72.4767 65.6411 72.6352 65.28 72.9516 65.7097 73.268 65.6301 73.4264 65.4991 73.5844 65.5057 73.7428 65.6026 73.9008 65.5526 74.0592 65.4053 74.2172 65.5973 74.3756 65.8903 74.692 66.2377 75.0084 66.1014 75.1668 66.2921 75.4832 67.1674 75.7996 66.5164 75.958 67.0904 76.116 67.8874 76.2744 67.8989 76.5908 67.2665 76.7493 67.8028 76.9072 68.8596 77.0657 69.4225 77.2236 68.8574 77.3821 67.821 77.54 67.4789 77.8569 68.8742 78.0149 69.3579 78.1733 69.4751 78.3313 69.3295 78.4897 68.5219 78.6477 70.4655 78.8061 77.3595 78.9645 79.75 79.2809 74.8708 79.5973 71.1023 79.7553 69.9265 79.9137 69.291 80.0721 68.9751 80.2301 69.2295 80.3885 69.8017 80.5465 70.0845 80.7049 69.9615 81.1798 69.2986 81.8126 67.7396 81.971 67.582 82.129 67.6028 82.4454 67.8365 82.6038 67.9006 82.9202 67.8263 83.8694 67.4214 84.3442 67.1448 84.6606 66.8629 84.977 66.5771 85.4519 66.3797 85.7682 66.5063 86.0847 67.0904 86.2431 67.1882 86.4015 67.0368 86.7179 66.2191 87.0343 65.3973 87.1923 65.2362 87.3507 65.2699 87.5091 65.4575 87.6671 65.7796 88.1419 67.0483 88.4583 67.5984 88.7747 67.9905 88.9332 68.1285 89.0911 68.187 89.2495 68.0741 89.4075 67.7453 89.7244 66.7881 90.5156 64.0658 90.6736 63.71 90.832 63.6564 90.99 63.8388 91.1484 63.752 91.3064 63.2467 91.7812 61.0257 92.256 57.9037 92.414 57.1775 92.5724 56.6956 92.8888 54.4056 93.0473 51.3221 93.2052 55.7389 93.3637 61.6775 93.5216 62.5338 93.6801 65.8575 93.8385 67.1997 93.9965 68.9724 94.1549 69.6004 94.3129 70.4571 94.4713 70.4655 94.9461 65.5655 95.1041 64.5348 95.2625 64.1795 95.4205 64.441 95.7369 65.5721 95.8953 66.9329 96.0537 63.7365 96.3701 67.9241 96.5281 67.1435 96.6865 66.6629 96.8445 66.7134 97.0029 66.4833 97.3193 66.7328 97.4778 66.7775 97.7942 66.4855 97.9521 66.535 98.269 66.3023 98.7434 66.2089 99.693 66.2487 100.009 66.2111 100.959 66.3863 102.225 66.4412 102.541 66.4788 103.649 66.3107 104.282 66.4629 104.598 66.3585 105.706 66.3974 106.18 66.4558 106.339 66.4505 106.655 66.516 106.814 66.7076 106.972 66.6585 107.13 66.551 107.288 66.6404 107.446 66.6465 107.604 66.4456 107.763 66.1589 107.921 66.004 108.079 66.0438 108.396 66.3275 108.554 66.3332 108.87 66.1545 109.029 66.2748 109.187 66.289 109.503 66.0102 109.662 65.9943 109.82 65.9239 110.136 66.0239 110.294 65.9775 110.611 65.9885 110.928 66.2297 111.086 65.9951 111.244 65.8845 111.561 66.1823 111.877 65.9823 112.035 66.0164 112.193 65.9766 112.352 65.9876 112.51 66.1199 112.668 66.4005 112.826 66.5324 113.143 66.916 113.301 66.893 113.776 66.0673 113.934 66.1677 114.251 67.3931 114.409 67.4926 114.567 67.2457 114.725 67.1223 115.041 67.4966 115.358 68.5498 115.516 68.4918 115.675 68.2794 115.833 67.721 115.991 67.4209 116.149 67.3077 116.307 66.9497 116.782 68.1489 116.94 68.9919 117.099 68.818 117.257 68.5569 117.573 71.1417 117.731 71.9431 117.89 73.8614 118.048 73.7919 118.206 72.9533 118.523 69.5889 118.839 67.9449 118.997 67.7555 119.155 68.2383 119.472 69.5773 119.63 69.9128 119.789 70.1031 119.947 70.1606 120.105 70.0898 120.263 69.9057 120.422 69.6216 121.054 68.0794 121.371 67.7542 121.529 67.7015 121.846 67.9037 122.162 68.0723 122.478 68.0175 122.953 67.7697 123.586 67.2678 123.744 67.2209 124.219 67.3015 124.852 66.9913 125.01 66.8957 125.327 66.5023 125.801 65.6004 125.96 65.4451 126.118 65.438 126.276 65.5849 126.434 65.9093 127.067 67.5258 127.384 67.9799 127.7 68.2091 127.859 68.2396 128.017 68.1781 128.175 67.963 128.491 67.263 128.966 65.5531 129.599 62.6891 130.074 61.2482 130.232 60.9119 130.39 60.7101 130.549 60.3548 130.707 59.5848 131.023 56.6177 131.181 59.314 131.498 49.0692 131.656 46.1654 131.814 56.0075 131.973 62.3125 132.289 68.0586 132.447 66.5709 132.605 69.6504 132.922 70.7726 133.08 69.6946 133.238 68.0201 133.397 65.5995 133.555 65.573 133.871 64.2038 134.188 64.3954 134.346 65.2256 134.504 64.1428 134.663 66.5695 134.821 67.748 135.137 66.4448 135.295 66.6793 135.612 66.4952 136.562 66.5846 136.72 66.6209 137.036 66.5465 137.352 66.5027 137.986 66.5107 138.302 66.5563 138.935 66.5226 139.884 66.6187 141.15 66.6001 141.941 66.4496 142.732 66.4979 143.207 66.4554 143.84 66.4673 143.84 66.4673" stroke="#1B4F72" stroke-width="1.32756" stroke-linecap="square" stroke-linejoin="round" stroke-opacity="0.45" fill="none" transform="matrix(1.082 0 0 1 0.0418186 0)"/></g><path d="M0 0 0-1.77008" stroke="#000000" stroke-width="0.44252" stroke-linejoin="round" fill="none" transform="matrix(1.082 0 0 1 30.8658 91.6228)"/><text font-family="Times New Roman,Times New Roman_MSFontService,sans-serif" font-weight="400" font-size="16" transform="matrix(0.478808 0 0 0.44252 28.9506 98)">0</text><path d="M0 0 0-1.77008" stroke="#000000" stroke-width="0.44252" stroke-linejoin="round" fill="none" transform="matrix(1.082 0 0 1 65.1075 91.6228)"/><text font-family="Times New Roman,Times New Roman_MSFontService,sans-serif" font-weight="400" font-size="16" transform="matrix(0.478808 0 0 0.44252 57.4466 98)">1000</text><path d="M0 0 0-1.77008" stroke="#000000" stroke-width="0.44252" stroke-linejoin="round" fill="none" transform="matrix(1.082 0 0 1 99.3495 91.6228)"/><text font-family="Times New Roman,Times New Roman_MSFontService,sans-serif" font-weight="400" font-size="16" transform="matrix(0.478808 0 0 0.44252 91.6885 98)">2000</text><path d="M0 0 0-1.77008" stroke="#000000" stroke-width="0.44252" stroke-linejoin="round" fill="none" transform="matrix(1.082 0 0 1 133.591 91.6228)"/><text font-family="Times New Roman,Times New Roman_MSFontService,sans-serif" font-weight="400" font-size="16" transform="matrix(0.478808 0 0 0.44252 125.93 98)">3000</text><text font-family="Times New Roman,Times New Roman_MSFontService,sans-serif" font-weight="400" font-size="18" transform="matrix(0.478808 0 0 0.44252 75.3526 110)">Time </text><text font-family="Times New Roman,Times New Roman_MSFontService,sans-serif" font-weight="400" font-size="18" transform="matrix(0.478808 0 0 0.44252 95.3924 110)">(</text><text font-family="Times New Roman,Times New Roman_MSFontService,sans-serif" font-weight="400" font-size="18" transform="matrix(0.478808 0 0 0.44252 98.2625 110)">ms</text><text font-family="Times New Roman,Times New Roman_MSFontService,sans-serif" font-weight="400" font-size="18" transform="matrix(0.478808 0 0 0.44252 108.32 110)">)</text><path d="M0 0 1.77008 0" stroke="#000000" stroke-width="0.44252" stroke-linejoin="round" fill="none" transform="matrix(1.082 0 0 1 30.8658 79.654)"/><text font-family="Times New Roman,Times New Roman_MSFontService,sans-serif" font-weight="400" font-size="16" transform="matrix(0.478808 0 0 0.44252 13.2322 82)">-</text><text font-family="Times New Roman,Times New Roman_MSFontService,sans-serif" font-weight="400" font-size="16" transform="matrix(0.478808 0 0 0.44252 15.7834 82)">2</text><text font-family="Times New Roman,Times New Roman_MSFontService,sans-serif" font-weight="400" font-size="16" transform="matrix(0.478808 0 0 0.44252 19.6139 82)">.</text><text font-family="Times New Roman,Times New Roman_MSFontService,sans-serif" font-weight="400" font-size="16" transform="matrix(0.478808 0 0 0.44252 21.5291 82)">50</text><path d="M0 0 1.77008 0" stroke="#000000" stroke-width="0.44252" stroke-linejoin="round" fill="none" transform="matrix(1.082 0 0 1 30.8658 66.3855)"/><text font-family="Times New Roman,Times New Roman_MSFontService,sans-serif" font-weight="400" font-size="16" transform="matrix(0.478808 0 0 0.44252 15.7834 69)">0</text><text font-family="Times New Roman,Times New Roman_MSFontService,sans-serif" font-weight="400" font-size="16" transform="matrix(0.478808 0 0 0.44252 19.6139 69)">.</text><text font-family="Times New Roman,Times New Roman_MSFontService,sans-serif" font-weight="400" font-size="16" transform="matrix(0.478808 0 0 0.44252 21.5291 69)">00</text><path d="M0 0 1.77008 0" stroke="#000000" stroke-width="0.44252" stroke-linejoin="round" fill="none" transform="matrix(1.082 0 0 1 30.8658 53.1174)"/><text font-family="Times New Roman,Times New Roman_MSFontService,sans-serif" font-weight="400" font-size="16" transform="matrix(0.478808 0 0 0.44252 15.7834 56)">2</text><text font-family="Times New Roman,Times New Roman_MSFontService,sans-serif" font-weight="400" font-size="16" transform="matrix(0.478808 0 0 0.44252 19.6139 56)">.</text><text font-family="Times New Roman,Times New Roman_MSFontService,sans-serif" font-weight="400" font-size="16" transform="matrix(0.478808 0 0 0.44252 21.5291 56)">50</text><path d="M0 0 1.77008 0" stroke="#000000" stroke-width="0.44252" stroke-linejoin="round" fill="none" transform="matrix(1.082 0 0 1 30.8658 39.849)"/><text font-family="Times New Roman,Times New Roman_MSFontService,sans-serif" font-weight="400" font-size="16" transform="matrix(0.478808 0 0 0.44252 15.7834 42)">5</text><text font-family="Times New Roman,Times New Roman_MSFontService,sans-serif" font-weight="400" font-size="16" transform="matrix(0.478808 0 0 0.44252 19.6139 42)">.</text><text font-family="Times New Roman,Times New Roman_MSFontService,sans-serif" font-weight="400" font-size="16" transform="matrix(0.478808 0 0 0.44252 21.5291 42)">00</text><text font-family="Times New Roman,Times New Roman_MSFontService,sans-serif" font-style="italic" font-weight="400" font-size="18" transform="matrix(2.93185e-17 -0.44252 0.478808 2.70965e-17 9.45758 65)">g</text><g><path d="M28.4879 66.5182 28.8043 66.2837 29.912 66.2943 30.3867 66.4788 31.4943 66.6912 31.969 66.6788 32.602 66.7704 32.9184 66.6722 33.2349 66.4594 33.3931 66.5001 33.5513 66.2651 33.7096 66.2868 33.8678 66.223 34.3425 66.2925 34.5008 66.2425 35.2919 66.5125 35.4502 66.6461 35.7666 66.6762 35.9248 66.608 36.2413 66.6103 36.3996 66.7377 36.5578 66.7514 36.716 66.716 36.8743 66.5563 37.9819 66.9983 38.1401 66.8829 38.2983 66.9019 38.4566 67.2842 38.7731 68.341 38.9313 68.4892 39.0895 68.3542 39.2478 68.11 39.5642 67.2785 39.7225 67.278 40.3554 69.4778 40.5136 69.6318 40.6719 70.3429 40.8301 71.4196 41.3048 77.8989 41.463 78.0671 41.7795 71.7674 41.9377 70.4491 42.096 69.6721 42.2542 69.3906 42.4124 69.2778 42.7289 69.4946 42.8871 69.784 43.0454 69.9283 43.2036 70.242 43.3618 70.3079 43.6783 69.846 43.9948 69.2406 44.3113 68.371 44.4697 68.1471 44.7861 67.9555 45.2605 67.7316 45.4189 67.5736 45.7353 67.1413 46.2101 66.6819 46.8429 66.0819 47.1593 66.0385 47.4757 66.0168 47.6341 66.0173 47.9505 65.8615 48.109 65.7341 48.7418 65.6938 49.3746 65.7743 49.691 66.0297 50.3242 66.8877 50.957 67.7356 51.1154 67.7661 51.2734 67.6081 52.5395 64.5534 52.6974 64.3335 52.8559 64.0074 53.1723 62.7462 54.4383 55.2716 54.5963 52.7554 54.7547 51.7451 54.9127 52.054 55.0711 49.683 55.3875 64.0366 55.5459 65.3256 55.7039 65.8367 55.8623 67.9635 56.0203 69.2583 56.1787 69.9725 56.3372 69.8437 56.4951 69.1065 56.6536 68.0338 56.97 65.3066 57.1279 64.4171 57.2864 64.1901 57.4448 64.4764 58.0776 67.1554 58.2356 67.5064 58.394 67.4435 58.5524 67.44 58.7104 67.1917 58.8688 66.0952 59.0268 66.0602 59.1852 66.2111 59.3432 66.5735 59.5016 66.7271 59.818 66.5284 60.1344 66.5076 60.4508 66.4748 60.9256 66.5386 61.7169 66.4558 61.8753 66.3859 62.1917 66.501 62.3497 66.5877 62.6665 66.5757 62.9829 66.5204 63.4573 66.5912 63.7741 66.5735 64.0905 66.4523 64.407 66.4443 64.5649 66.3899 65.5146 66.4156 66.7802 66.3266 68.3626 66.3231 68.679 66.3841 69.7867 66.4262 70.4199 66.6492 70.5779 66.6235 70.7363 66.6912 70.8943 66.8191 71.0527 66.8793 71.3691 66.4461 71.5275 66.4536 71.6855 66.3956 71.8439 66.2443 72.0019 66.243 72.1603 66.4284 72.3188 66.3859 72.4767 66.4328 72.7931 66.4049 72.9516 66.3098 73.1095 66.3102 73.268 66.1978 73.4264 66.2315 73.5844 66.1695 73.7428 66.1691 73.9008 66.0947 74.2172 66.1031 74.3756 66.2416 74.534 66.193 74.8504 66.2987 75.0084 66.4943 75.1668 66.8351 75.3248 66.8417 75.4832 66.7793 75.6416 66.6089 75.7996 66.5501 75.958 66.7647 76.116 67.2493 76.2744 67.5192 76.4324 67.5165 76.5908 67.4041 76.9072 68.3166 77.0657 68.7587 77.2236 68.487 77.3821 67.698 77.54 67.367 77.6985 67.6674 78.0149 68.6047 78.1733 68.899 78.3313 69.0623 78.4897 69.0999 78.6477 71.8209 78.8061 76.139 78.9645 78.5932 79.1225 77.7467 79.5973 71.8037 79.7553 70.8677 79.9137 70.5597 80.0721 70.0712 80.2301 69.9358 80.3885 70.0893 80.5465 70.4088 80.7049 70.6128 80.8634 70.5004 81.1798 69.9495 81.4962 69.3034 81.6541 69.1658 81.8126 69.2477 82.129 68.833 82.2874 68.7467 82.4454 68.9618 82.6038 68.9791 82.9202 68.625 83.0786 68.6158 83.395 68.2445 83.7114 67.8015 84.0278 67.6227 84.8191 66.8302 85.1355 66.6395 85.4519 66.5833 85.9267 66.8492 86.0847 66.9554 86.2431 66.9815 86.4015 66.8603 86.5595 66.6089 86.8759 65.9248 87.0343 65.6823 87.1923 65.5876 87.3507 65.631 87.5091 65.8133 87.8255 66.4443 88.2999 67.4192 88.6168 67.8736 88.9332 68.2639 89.0911 68.2918 89.2495 68.194 89.566 67.6077 90.1988 65.7783 90.3572 65.0849 90.6736 64.372 90.832 64.2866 90.99 64.2915 91.1484 64.0808 91.4648 62.7962 91.7812 61.3518 92.0976 58.8803 92.5724 56.6876 92.7309 53.9259 92.8888 53.3891 93.0473 50.2052 93.3637 60.8836 93.6801 65.4597 93.9965 68.4741 94.1549 69.6256 94.3129 69.9013 94.4713 69.911 94.9461 66.0912 95.1041 65.4442 95.2625 65.2137 95.4205 65.3385 95.7369 66.1279 95.8953 66.9581 96.0537 64.861 96.3701 67.3661 96.5281 67.2125 96.6865 67.317 97.0029 67.2816 97.1614 67.3209 97.4778 67.055 97.7942 66.7496 98.1106 66.5864 98.427 66.516 98.5854 66.4647 98.7434 66.5001 99.0602 66.4501 99.2182 66.5235 99.3766 66.7191 99.5346 66.785 99.851 66.7842 100.009 66.9143 100.326 66.9638 100.959 66.9054 101.117 66.9483 101.433 67.1032 101.75 67.163 102.383 66.9346 102.541 66.8125 102.857 66.7457 103.174 66.6527 103.649 66.5186 103.965 66.4629 105.231 66.3801 105.548 66.431 105.864 66.4315 106.972 66.4731 107.288 66.4894 107.763 66.5395 108.079 66.4731 108.396 66.5182 108.554 66.3952 109.029 66.2828 109.187 66.0903 109.503 66.0478 109.82 65.8991 110.136 65.9536 110.294 65.9916 110.453 65.9199 110.928 66.193 111.086 66.1744 111.561 66.3642 111.718 66.3593 111.877 66.4156 112.035 66.5788 112.352 66.6607 112.826 66.7789 112.985 66.9302 113.301 66.9528 113.617 66.6094 113.776 66.6625 114.092 66.9492 114.409 67.3475 114.567 67.3267 114.883 67.455 115.041 67.6807 115.358 68.5326 115.516 68.5733 115.675 68.4339 115.833 68.0276 116.307 67.2457 116.466 67.5949 116.624 67.5099 117.099 68.4644 117.257 68.5728 117.415 69.4039 117.731 71.747 117.89 73.749 118.048 74.23 118.206 73.5481 118.523 70.338 118.839 68.2923 118.997 68.3578 119.155 69.1176 119.314 69.6256 119.472 69.8486 119.63 69.9513 119.789 70.169 119.947 70.1907 120.105 70.1336 120.422 69.6123 121.213 68.033 121.529 67.7953 121.688 67.8006 122.004 67.9405 122.478 67.9042 122.795 67.732 123.428 67.3572 124.219 67.282 124.536 67.1364 125.168 66.5766 125.96 65.6208 126.118 65.631 126.276 65.7456 126.592 66.2359 127.226 67.4918 127.542 67.9352 127.7 68.0962 127.859 68.1843 128.175 68.1303 128.491 67.6272 128.808 66.6965 129.757 62.3714 130.074 61.6346 130.39 61.1938 130.549 60.7447 130.707 59.8937 131.023 56.6177 131.181 58.4821 131.498 48.1824 131.656 46.1406 131.973 62.351 132.131 65.3358 132.289 66.8213 132.447 67.5904 132.605 69.0534 132.764 69.9327 132.922 70.2655 133.08 69.403 133.238 68.1971 133.397 66.4939 133.713 65.4039 133.871 65.0243 134.029 65.1907 134.188 65.1791 134.346 65.3801 134.504 64.8287 134.663 66.5532 134.821 67.0669 135.137 66.6598 135.295 66.6727 135.453 66.8209 135.77 67.4139 136.087 67.6696 136.245 67.6165 136.72 67.663 136.878 67.621 137.669 67.1944 137.827 67.1284 138.46 67.0559 138.935 66.8563 139.568 66.9399 139.726 66.9444 140.359 67.2285 140.834 67.2218 141.466 67.4263 142.416 66.9802 142.732 66.7997 143.365 66.7129 143.84 66.5877 143.84 66.5877" stroke="#C0392B" stroke-width="0.796535" stroke-linecap="square" stroke-linejoin="round" fill="none" transform="matrix(1.082 0 0 1 0.0418186 0)"/></g><path d="M28.4879 91.6228 28.4879 35.3938" stroke="#000000" stroke-width="0.44252" stroke-linecap="square" fill="none" transform="matrix(1.082 0 0 1 0.0418186 0)"/><path d="M143.84 91.6228 143.84 35.3938" stroke="#000000" stroke-width="0.44252" stroke-linecap="square" fill="none" transform="matrix(1.082 0 0 1 0.0418186 0)"/><path d="M28.4879 91.6228 143.84 91.6228" stroke="#000000" stroke-width="0.44252" stroke-linecap="square" fill="none" transform="matrix(1.082 0 0 1 0.0418186 0)"/><path d="M28.4879 35.3938 143.84 35.3938" stroke="#000000" stroke-width="0.44252" stroke-linecap="square" fill="none" transform="matrix(1.082 0 0 1 0.0418186 0)"/><text font-family="Times New Roman,Times New Roman_MSFontService,sans-serif" font-weight="700" font-size="19" transform="matrix(0.478808 0 0 0.44252 87.9676 117)">(</text><text font-family="Times New Roman,Times New Roman_MSFontService,sans-serif" font-weight="700" font-size="19" transform="matrix(0.478808 0 0 0.44252 90.9971 117)">a</text><text font-family="Times New Roman,Times New Roman_MSFontService,sans-serif" font-weight="700" font-size="19" transform="matrix(0.478808 0 0 0.44252 95.5458 117)">)</text><text font-family="Times New Roman,Times New Roman_MSFontService,sans-serif" font-weight="700" font-size="22" transform="matrix(0.478808 0 0 0.44252 80.9889 32)">AccX</text><path d="M190.004 91.6228 305.356 91.6228 305.356 35.3938 190.004 35.3938Z" fill="#FFFFFF" transform="matrix(1.082 0 0 1 0.0418186 0)"/><g><path d="M190.004 66.4673 190.953 66.4487 193.327 66.481 193.643 66.5337 193.959 66.454 194.276 66.5824 194.593 66.778 194.751 66.8404 194.909 66.8399 195.067 66.7173 195.225 66.697 195.542 66.8085 196.491 66.7815 196.808 66.916 196.966 66.9983 197.124 66.9895 197.441 67.1776 197.599 67.3537 197.757 67.3953 197.916 67.3497 198.232 67.5581 198.39 67.5687 198.548 67.4271 198.706 67.3785 198.865 67.4515 199.023 67.4271 199.34 67.8767 199.656 67.8347 199.814 67.8944 199.972 68.4635 200.131 68.7574 200.289 68.6228 200.447 68.6467 200.605 68.9636 200.764 69.1543 200.922 68.8348 201.08 68.7799 201.238 68.8339 201.396 68.0954 201.713 64.5791 201.871 63.8719 202.03 60.5584 202.188 59.1728 202.504 57.5328 202.82 60.8871 202.979 61.7514 203.295 59.2317 203.454 59.4481 203.928 63.2515 204.086 63.6954 204.245 63.7843 204.878 63.4613 205.194 63.3648 205.669 62.9838 205.827 62.9679 205.985 63.0776 206.302 63.587 206.618 64.1786 207.568 65.3734 207.884 65.6717 208.201 65.8403 208.517 65.9571 209.783 66.9997 210.891 68.4626 212.156 69.553 212.473 69.9606 212.631 70.0446 212.79 70.0654 212.947 70.1685 213.106 70.612 214.055 74.911 214.372 77.3347 214.846 80.9395 215.005 81.663 215.163 82.0011 215.321 82.0232 215.479 81.7966 215.638 81.3572 215.954 80.2615 216.112 80.7598 216.27 80.0757 216.429 77.7918 216.587 73.1126 216.745 66.0297 216.903 64.6999 217.062 65.5429 217.22 61.989 217.378 61.1606 217.694 65.496 217.853 66.7249 218.169 67.2577 218.486 66.1562 218.644 66.3872 218.802 66.3607 219.118 65.919 219.593 66.366 219.752 66.7886 219.91 66.5837 220.068 66.2222 220.226 68.441 220.384 68.1569 220.543 66.5992 220.701 66.4687 220.859 66.6912 221.017 66.6359 221.176 66.4085 221.334 66.4093 221.651 66.3208 221.967 66.3593 222.442 66.3425 223.075 66.3102 223.866 66.2713 224.499 66.289 225.29 66.2828 226.239 66.2992 229.562 66.3164 229.72 66.2633 230.195 66.3248 230.512 66.3031 230.986 66.316 231.936 66.3054 232.252 66.4226 232.568 66.4709 232.727 66.5346 233.043 66.4567 233.36 66.6532 233.518 66.4717 233.834 66.497 233.992 66.2169 234.151 66.2332 234.309 66.4452 234.626 66.5421 234.784 66.6346 235.1 66.5921 235.417 66.7554 235.575 66.8373 235.733 67.1461 235.891 67.1736 236.208 67.0917 236.366 67.0125 236.524 67.2585 236.841 67.2944 236.999 67.0767 237.157 67.0059 237.632 67.7882 237.79 68.19 237.949 69.1304 238.265 68.6339 238.423 68.194 238.581 67.374 238.74 67.5612 238.898 67.6608 239.056 67.6626 239.214 66.7873 239.531 63.6529 239.689 62.4855 239.847 60.2583 240.005 56.2256 240.164 57.3262 240.322 62.9679 240.48 66.293 240.639 65.019 240.797 61.4629 240.955 59.5959 241.113 60.6442 241.271 62.4028 241.429 63.4201 241.588 63.6317 241.904 63.5538 242.537 63.8352 242.695 63.7976 242.854 63.7042 243.328 63.2139 243.487 63.1427 243.645 63.1427 243.803 63.202 244.119 63.5396 245.069 64.7167 245.543 65.0601 246.967 66.5872 247.442 67.3528 247.759 67.929 248.076 68.2069 248.392 68.4401 248.55 68.6573 249.025 69.6729 249.5 70.639 249.974 71.2957 250.607 72.3024 250.765 72.4228 250.924 72.4595 251.082 72.6285 251.398 73.3096 251.715 73.6972 252.031 74.0052 252.189 74.3928 252.506 75.9815 252.98 78.2644 253.297 79.3668 253.455 79.4048 253.772 78.8853 253.93 78.5539 254.247 79.5858 254.404 85.1054 254.563 78.5848 254.721 67.5103 255.038 66.1894 255.354 62.8064 255.513 62.4461 255.671 65.0176 255.829 66.4881 256.145 67.1435 256.303 67.2147 256.462 66.7607 256.62 66.4833 256.778 66.3744 256.937 66.116 257.253 66.0682 257.411 69.8256 257.727 67.6878 258.044 66.6107 258.361 66.8452 258.519 66.6209 258.835 66.4594 258.993 66.3111 259.152 66.5271 259.468 66.4558 259.626 66.5589 259.943 66.5032 260.259 66.4598 260.576 66.4222 261.051 66.389 261.841 66.3673 262.791 66.4173 265.481 66.3359 265.639 66.3089 265.956 66.4558 266.43 66.4859 266.747 66.4487 267.38 66.4381 267.696 66.4487 267.854 66.5319 268.013 66.5355 268.171 66.5921 268.488 66.4788 268.646 66.5213 268.962 66.5248 269.12 66.5961 269.437 66.5602 270.07 66.7443 270.703 66.7306 270.861 66.735 271.494 66.9333 271.652 66.9267 271.811 67.0448 272.127 67.0554 272.285 67.2085 272.76 67.2377 273.235 67.3608 273.393 67.3829 273.551 67.455 273.709 67.3302 274.659 68.0533 274.817 68.0343 275.133 67.809 275.291 67.8573 275.45 67.8214 275.766 68.4348 275.925 68.3498 276.399 68.7193 276.557 68.6945 276.715 68.8737 276.874 69.584 277.032 69.6207 277.349 70.1801 277.507 70.2301 277.665 70.4721 277.823 69.5322 277.982 69.0273 278.614 63.0905 278.773 60.6694 278.931 59.4667 279.089 56.2141 279.248 58.5259 279.405 63.9109 279.564 65.9943 279.722 63.6206 279.88 59.302 280.038 57.1169 280.197 58.0364 280.355 60.7416 280.513 62.37 280.672 63.0387 280.83 63.3374 280.988 63.467 281.304 64.0007 281.621 64.6154 281.779 64.8234 281.937 64.8999 282.254 64.7906 282.728 64.641 283.045 64.6778 283.361 64.8804 283.836 65.3331 285.102 67.1634 285.418 67.2886 285.735 67.3165 286.21 67.3674 286.526 67.5904 287.001 68.0002 287.317 68.1865 287.792 68.5773 287.95 68.6746 288.425 68.8162 288.583 68.9406 288.9 69.4614 289.216 70.0747 289.849 71.6802 290.324 73.4388 290.482 73.9716 290.798 75.5456 291.115 77.7892 291.589 81.9343 291.906 84.1659 292.064 84.8983 292.223 85.1346 292.381 84.7752 292.539 85.012 292.697 85.1089 292.855 83.0043 293.013 81.882 293.172 75.1239 293.33 66.1668 293.488 62.0598 293.647 64.1379 293.805 63.3015 293.963 61.7474 294.438 67.6391 294.596 68.3728 294.754 68.3047 295.071 66.3726 295.229 66.4886 295.387 66.674 295.546 66.0996 295.703 66.0416 295.862 70.6633 296.02 67.9427 296.337 67.201 296.495 66.8913 296.653 66.7063 296.97 66 297.128 66.3523 297.286 66.4452 297.444 66.4262 297.761 66.2598 297.919 66.4425 298.077 66.4465 298.394 66.5275 299.66 66.4111 300.134 66.4518 303.299 66.4598 303.615 66.4182 303.932 66.4315 304.09 66.3855 304.565 66.4899 305.356 66.4381 305.356 66.4381" stroke="#1B4F72" stroke-width="1.32756" stroke-linecap="square" stroke-linejoin="round" stroke-opacity="0.45" fill="none" transform="matrix(1.082 0 0 1 0.0418186 0)"/></g><path d="M0 0 0-1.77008" stroke="#000000" stroke-width="0.44252" stroke-linejoin="round" fill="none" transform="matrix(1.082 0 0 1 205.627 91.6228)"/><text font-family="Times New Roman,Times New Roman_MSFontService,sans-serif" font-weight="400" font-size="16" transform="matrix(0.478808 0 0 0.44252 203.711 98)">0</text><path d="M0 0 0-1.77008" stroke="#000000" stroke-width="0.44252" stroke-linejoin="round" fill="none" transform="matrix(1.082 0 0 1 239.869 91.6228)"/><text font-family="Times New Roman,Times New Roman_MSFontService,sans-serif" font-weight="400" font-size="16" transform="matrix(0.478808 0 0 0.44252 232.208 98)">1000</text><path d="M0 0 0-1.77008" stroke="#000000" stroke-width="0.44252" stroke-linejoin="round" fill="none" transform="matrix(1.082 0 0 1 274.11 91.6228)"/><text font-family="Times New Roman,Times New Roman_MSFontService,sans-serif" font-weight="400" font-size="16" transform="matrix(0.478808 0 0 0.44252 266.449 98)">2000</text><path d="M0 0 0-1.77008" stroke="#000000" stroke-width="0.44252" stroke-linejoin="round" fill="none" transform="matrix(1.082 0 0 1 308.352 91.6228)"/><text font-family="Times New Roman,Times New Roman_MSFontService,sans-serif" font-weight="400" font-size="16" transform="matrix(0.478808 0 0 0.44252 300.691 98)">3000</text><text font-family="Times New Roman,Times New Roman_MSFontService,sans-serif" font-weight="400" font-size="18" transform="matrix(0.478808 0 0 0.44252 250.114 110)">Time </text><text font-family="Times New Roman,Times New Roman_MSFontService,sans-serif" font-weight="400" font-size="18" transform="matrix(0.478808 0 0 0.44252 270.154 110)">(</text><text font-family="Times New Roman,Times New Roman_MSFontService,sans-serif" font-weight="400" font-size="18" transform="matrix(0.478808 0 0 0.44252 273.024 110)">ms</text><text font-family="Times New Roman,Times New Roman_MSFontService,sans-serif" font-weight="400" font-size="18" transform="matrix(0.478808 0 0 0.44252 283.081 110)">)</text><path d="M0 0 1.77008 0" stroke="#000000" stroke-width="0.44252" stroke-linejoin="round" fill="none" transform="matrix(1.082 0 0 1 205.627 79.654)"/><text font-family="Times New Roman,Times New Roman_MSFontService,sans-serif" font-weight="400" font-size="16" transform="matrix(0.478808 0 0 0.44252 187.993 82)">-</text><text font-family="Times New Roman,Times New Roman_MSFontService,sans-serif" font-weight="400" font-size="16" transform="matrix(0.478808 0 0 0.44252 190.544 82)">2</text><text font-family="Times New Roman,Times New Roman_MSFontService,sans-serif" font-weight="400" font-size="16" transform="matrix(0.478808 0 0 0.44252 194.375 82)">.</text><text font-family="Times New Roman,Times New Roman_MSFontService,sans-serif" font-weight="400" font-size="16" transform="matrix(0.478808 0 0 0.44252 196.29 82)">50</text><path d="M0 0 1.77008 0" stroke="#000000" stroke-width="0.44252" stroke-linejoin="round" fill="none" transform="matrix(1.082 0 0 1 205.627 66.3855)"/><text font-family="Times New Roman,Times New Roman_MSFontService,sans-serif" font-weight="400" font-size="16" transform="matrix(0.478808 0 0 0.44252 190.544 69)">0</text><text font-family="Times New Roman,Times New Roman_MSFontService,sans-serif" font-weight="400" font-size="16" transform="matrix(0.478808 0 0 0.44252 194.375 69)">.</text><text font-family="Times New Roman,Times New Roman_MSFontService,sans-serif" font-weight="400" font-size="16" transform="matrix(0.478808 0 0 0.44252 196.29 69)">00</text><path d="M0 0 1.77008 0" stroke="#000000" stroke-width="0.44252" stroke-linejoin="round" fill="none" transform="matrix(1.082 0 0 1 205.627 53.1174)"/><text font-family="Times New Roman,Times New Roman_MSFontService,sans-serif" font-weight="400" font-size="16" transform="matrix(0.478808 0 0 0.44252 190.544 56)">2</text><text font-family="Times New Roman,Times New Roman_MSFontService,sans-serif" font-weight="400" font-size="16" transform="matrix(0.478808 0 0 0.44252 194.375 56)">.</text><text font-family="Times New Roman,Times New Roman_MSFontService,sans-serif" font-weight="400" font-size="16" transform="matrix(0.478808 0 0 0.44252 196.29 56)">50</text><path d="M0 0 1.77008 0" stroke="#000000" stroke-width="0.44252" stroke-linejoin="round" fill="none" transform="matrix(1.082 0 0 1 205.627 39.849)"/><text font-family="Times New Roman,Times New Roman_MSFontService,sans-serif" font-weight="400" font-size="16" transform="matrix(0.478808 0 0 0.44252 190.544 42)">5</text><text font-family="Times New Roman,Times New Roman_MSFontService,sans-serif" font-weight="400" font-size="16" transform="matrix(0.478808 0 0 0.44252 194.375 42)">.</text><text font-family="Times New Roman,Times New Roman_MSFontService,sans-serif" font-weight="400" font-size="16" transform="matrix(0.478808 0 0 0.44252 196.29 42)">00</text><text font-family="Times New Roman,Times New Roman_MSFontService,sans-serif" font-style="italic" font-weight="400" font-size="18" transform="matrix(2.93185e-17 -0.44252 0.478808 2.70965e-17 184.218 65)">g</text><g><path d="M190.004 66.8519 190.162 66.7089 190.32 66.4624 191.428 66.3133 192.852 66.4111 193.168 66.3837 193.485 66.42 193.801 66.3576 193.959 66.3474 194.276 66.1306 194.593 66.339 194.751 66.3177 194.909 66.493 195.067 66.5076 195.542 66.7505 195.858 66.8519 196.333 66.7607 196.649 66.8935 196.966 67.0041 197.124 67.0802 197.282 67.066 197.757 67.1656 198.074 67.4369 198.39 67.8706 198.865 67.8077 199.181 67.9723 199.34 68.0777 199.656 68.156 200.447 68.5994 200.605 68.7906 200.764 68.8817 200.922 68.8118 201.08 68.6427 201.238 68.5808 201.396 67.8635 202.188 60.0251 202.346 59.1972 202.504 58.6728 202.662 59.2228 202.82 60.4778 202.979 61.0903 203.137 60.4637 203.295 59.6229 203.454 59.9795 203.77 62.605 204.086 63.7772 204.245 64.0105 204.403 63.8357 204.561 63.8029 204.719 63.8237 204.878 63.9467 205.036 63.9578 205.51 63.8246 205.669 63.8967 205.827 63.8932 205.985 63.995 206.777 65.0561 206.935 65.1424 207.409 65.6341 208.042 66.1142 208.517 66.3208 208.992 66.6846 210.099 67.7312 210.732 68.4374 211.682 69.2264 212.473 69.9305 212.79 70.0084 212.947 70.1663 213.106 70.477 213.264 71.0191 213.58 72.5343 214.055 74.4924 214.214 75.3987 214.846 80.3549 215.005 81.0572 215.163 81.397 215.321 81.3524 215.479 81.1643 215.796 80.0991 215.954 79.5823 216.112 80.3726 216.27 79.5544 216.587 73.6432 216.745 65.8066 216.903 64.9428 217.062 65.7708 217.22 62.8325 217.378 61.6421 217.694 65.5885 217.853 66.7249 218.011 66.7651 218.328 66.5638 218.486 65.9881 218.644 65.6854 218.802 65.6619 218.96 65.6991 219.277 66.1151 219.435 66.1841 219.593 66.3593 219.752 66.7952 220.068 66.4952 220.384 67.5533 220.543 66.8364 220.701 66.4833 220.859 66.4912 221.017 66.5779 221.176 66.4301 221.334 66.1868 221.651 66.1686 221.808 66.22 221.967 66.1182 222.442 66.239 222.916 66.189 223.391 66.2297 224.024 66.3912 224.34 66.2792 224.973 66.3124 225.131 66.3885 225.29 66.4036 225.606 66.3372 226.397 66.4536 227.505 66.4151 227.821 66.4403 228.771 66.47 229.088 66.4886 230.828 66.4509 231.144 66.3868 231.461 66.3624 231.777 66.3027 232.094 66.2806 232.252 66.2447 232.568 66.327 232.885 66.0664 233.043 66.1385 233.202 66.4142 233.518 66.3877 233.834 66.5948 234.467 66.6222 234.784 66.6833 235.1 66.793 235.258 66.8368 235.575 67.1807 235.733 67.4431 235.891 67.59 236.05 67.617 236.208 67.4395 236.366 67.4586 236.524 67.5683 236.682 67.7789 236.841 67.5418 236.999 67.6002 237.157 67.4798 237.315 67.6121 237.949 68.7383 238.106 68.7087 238.423 68.0192 238.581 67.7404 238.74 67.798 238.898 67.9825 239.056 67.7179 239.214 66.6222 239.531 63.4967 239.689 62.232 240.005 58.9949 240.164 59.5751 240.48 64.1237 240.639 63.5657 240.797 61.2929 240.955 60.0225 241.113 60.8456 241.271 62.3094 241.429 63.1913 241.588 63.5135 241.746 63.6489 242.063 64.1852 242.221 64.276 242.379 64.2237 242.537 64.0512 242.695 64.1308 242.854 64.0905 243.012 63.8626 243.17 63.7308 243.328 63.6786 243.487 63.8047 243.645 63.7985 243.803 63.8578 244.752 64.8858 244.911 64.8583 245.227 65.0411 245.543 65.1738 246.335 66.0978 246.651 66.4403 246.967 66.8775 247.284 67.3785 247.759 68.2613 247.917 68.4299 248.234 68.587 248.392 68.7003 248.708 69.1273 249.5 70.5128 249.816 70.8429 250.449 71.666 251.082 72.2019 251.398 72.7467 252.189 74.0481 252.348 74.634 252.822 77.0971 253.139 78.4923 253.297 78.9052 253.455 79.0251 253.614 78.822 253.93 78.0379 254.088 78.2897 254.247 79.48 254.404 84.5942 254.563 78.788 254.721 67.7533 255.038 66.9227 255.354 63.275 255.513 63.0741 255.829 66.6461 255.987 67.1612 256.145 67.1678 256.303 67.0289 256.462 66.3739 256.62 66.0398 256.778 65.9558 257.095 66.0558 257.253 66.7908 257.411 68.1303 257.569 68.5078 257.886 67.1585 258.044 66.6797 258.361 66.3863 258.677 66.4014 258.835 66.354 258.993 66.389 259.152 66.3421 259.31 66.166 259.626 66.1288 259.943 66.2377 260.259 66.3147 260.417 66.3147 260.576 66.2421 260.892 66.3421 261.209 66.2483 261.367 66.2908 261.841 66.2642 262 66.3527 262.949 66.5257 263.266 66.6297 263.582 66.5129 263.899 66.5483 264.215 66.4815 264.532 66.5222 264.848 66.4793 265.798 66.5244 266.114 66.4908 266.589 66.4903 267.222 66.4536 267.538 66.3934 268.013 66.3757 268.171 66.3708 268.488 66.2899 268.804 66.2863 268.962 66.2107 269.278 66.1823 269.753 66.0168 270.386 66.077 270.544 66.1527 270.703 66.131 270.861 66.2022 271.019 66.1646 272.127 66.5226 272.285 66.4992 272.443 66.7005 272.601 66.7926 272.918 66.816 273.076 66.9457 273.393 66.982 273.551 66.9992 274.659 67.698 274.975 67.994 275.133 68.1622 275.291 68.2237 275.45 68.3432 275.608 68.6047 275.766 68.7135 276.083 68.5498 276.241 68.7764 276.399 68.8122 276.557 68.7423 276.715 68.9861 276.874 69.4583 277.032 69.6132 277.349 70.1354 277.665 70.165 278.14 67.6134 278.614 63.3179 279.089 58.4843 279.248 59.7061 279.405 62.6727 279.564 64.5937 279.722 63.5993 279.88 59.3737 280.038 57.5036 280.197 58.5825 280.355 61.3456 280.513 62.8488 280.988 63.8485 281.146 63.9215 281.304 64.1972 281.621 64.9924 281.779 65.3026 282.096 65.5044 282.254 65.5106 282.412 65.5894 282.887 65.4978 283.678 65.8115 283.994 66.1093 284.311 66.4925 284.786 67.1112 284.944 67.2878 285.577 67.5701 286.21 67.7028 287.001 68.3051 287.317 68.4821 287.792 68.8392 288.109 69.0025 288.425 69.0875 288.583 69.1884 288.9 69.5822 289.216 70.0491 289.691 71.0169 290.007 71.9041 290.324 72.9498 290.482 73.4697 290.957 76.0098 291.273 78.4777 291.589 81.1585 291.906 83.2198 292.064 83.9862 292.223 84.1575 292.381 84.0309 292.539 84.0132 292.697 84.1646 293.013 81.7528 293.172 74.9252 293.33 65.7429 293.488 62.386 293.647 64.5552 293.963 62.4877 294.121 63.9843 294.438 67.9073 294.596 68.4892 294.754 67.6524 294.912 67.1807 295.071 66.3952 295.229 66.4952 295.387 66.4439 295.546 66.0606 295.703 66.8771 295.862 68.9693 296.02 68.1657 296.178 67.6754 296.337 66.9329 296.495 66.6709 296.653 66.2372 296.97 65.9597 297.128 65.9978 297.286 65.9487 297.444 66.0792 297.761 66.4554 297.919 66.5713 298.394 66.4664 298.71 66.5178 299.343 66.5005 299.66 66.4748 299.818 66.5271 300.609 66.4647 301.084 66.5841 301.558 66.4917 301.716 66.508 302.033 66.4545 302.666 66.3828 302.824 66.3492 303.141 66.4571 303.774 66.5102 304.248 66.5328 304.565 66.5735 304.881 66.6523 305.198 66.5412 305.356 66.5558 305.356 66.5558" stroke="#C0392B" stroke-width="0.796535" stroke-linecap="square" stroke-linejoin="round" fill="none" transform="matrix(1.082 0 0 1 0.0418186 0)"/></g><path d="M190.004 91.6228 190.004 35.3938" stroke="#000000" stroke-width="0.44252" stroke-linecap="square" fill="none" transform="matrix(1.082 0 0 1 0.0418186 0)"/><path d="M305.356 91.6228 305.356 35.3938" stroke="#000000" stroke-width="0.44252" stroke-linecap="square" fill="none" transform="matrix(1.082 0 0 1 0.0418186 0)"/><path d="M190.004 91.6228 305.356 91.6228" stroke="#000000" stroke-width="0.44252" stroke-linecap="square" fill="none" transform="matrix(1.082 0 0 1 0.0418186 0)"/><path d="M190.004 35.3938 305.356 35.3938" stroke="#000000" stroke-width="0.44252" stroke-linecap="square" fill="none" transform="matrix(1.082 0 0 1 0.0418186 0)"/><text font-family="Times New Roman,Times New Roman_MSFontService,sans-serif" font-weight="700" font-size="19" transform="matrix(0.478808 0 0 0.44252 262.473 117)">(</text><text font-family="Times New Roman,Times New Roman_MSFontService,sans-serif" font-weight="700" font-size="19" transform="matrix(0.478808 0 0 0.44252 265.503 117)">b</text><text font-family="Times New Roman,Times New Roman_MSFontService,sans-serif" font-weight="700" font-size="19" transform="matrix(0.478808 0 0 0.44252 270.562 117)">)</text><text font-family="Times New Roman,Times New Roman_MSFontService,sans-serif" font-weight="700" font-size="22" transform="matrix(0.478808 0 0 0.44252 255.75 32)">AccY</text><path d="M28.4879 204.194 143.84 204.194 143.84 147.966 28.4879 147.966Z" fill="#FFFFFF" transform="matrix(1.082 0 0 1 0.0418186 0)"/><g><path d="M28.4879 173.635 29.1208 173.633 29.912 173.596 30.7032 173.553 31.0196 173.484 31.969 173.505 32.4437 173.345 32.7602 173.063 32.9184 173.08 33.0767 173.207 33.2349 173.161 33.3931 172.906 33.5513 172.763 33.7096 172.814 34.026 173.096 34.1843 173.092 34.3425 172.965 34.5008 172.961 34.659 173.012 35.1337 172.93 35.2919 172.918 35.4502 172.637 35.6084 172.6 35.7666 172.764 35.9248 172.766 36.0831 172.918 36.2413 173.329 36.3996 173.573 36.5578 173.096 36.8743 170.903 37.0325 169.523 37.1907 169.04 37.349 169.245 37.5072 169.317 37.6654 169.272 37.8237 168.634 37.9819 167.724 38.1401 167.333 38.2983 167.283 38.4566 167.037 38.6148 166.991 38.9313 164.82 39.0895 164.488 39.406 165.062 39.7225 164.72 39.8807 164.373 40.0389 164.638 40.1971 165.847 40.5136 167.028 40.6719 170.998 40.9883 180.679 41.1466 178.81 41.3048 171.748 41.463 167.916 41.6213 167.679 41.7795 168.911 42.096 172.926 42.2542 173.19 42.4124 173.311 43.2036 176.365 43.3618 176.389 44.153 175.348 44.7861 174.505 45.5773 173.796 45.8937 173.552 46.0517 173.356 46.5265 172.492 46.8429 172.077 47.4757 171.103 48.4254 169.69 48.7418 169.511 49.0582 169.35 49.3746 169.142 49.691 169.078 50.0078 169.05 50.1658 168.959 50.4822 168.608 50.6406 168.361 51.1154 167.431 51.2734 167.477 51.4318 167.656 51.5898 167.692 51.7482 167.572 51.9062 167.579 52.2231 168.041 52.381 168.374 52.5395 168.863 53.0143 170.716 53.3307 171.558 53.6471 172.068 53.8051 172.222 53.9635 172.277 54.1219 172.223 54.4383 171.937 54.5963 171.687 54.7547 159.298 54.9127 166.31 55.0711 181.72 55.2295 178.816 55.7039 168.424 55.8623 168.743 56.0203 168.577 56.1787 167.96 56.3372 168.01 56.4951 169.08 56.6536 169.437 56.8115 168.156 56.97 168.091 57.2864 170.236 57.6028 172.424 57.9192 173.296 58.0776 172.029 58.2356 171.717 58.394 173.195 58.5524 174.123 58.7104 173.395 58.8688 170.003 59.0268 170.998 59.1852 172.561 59.3432 172.449 59.5016 172.926 59.66 173.127 59.9764 173.294 60.1344 173.429 60.4508 173.492 61.5584 173.597 61.8753 173.581 62.1917 173.622 62.8245 173.606 63.1409 173.64 63.6157 173.632 64.0905 173.669 64.407 173.688 64.8818 173.64 65.831 173.664 67.4134 173.663 67.5714 173.697 67.7298 173.873 68.0462 173.576 68.5211 173.624 69.3123 173.581 69.6287 173.584 69.9451 173.507 70.1031 173.519 70.4199 173.347 70.8943 173.503 71.2111 173.319 71.3691 173.214 71.5275 172.999 71.6855 172.915 72.0019 172.984 72.1603 172.697 72.3188 172.716 72.4767 172.582 72.6352 172.285 72.9516 172.87 73.268 172.342 73.4264 172.431 73.5844 172.316 73.9008 171.832 74.0592 171.656 74.2172 171.358 74.3756 170.872 74.534 170.946 74.692 171.674 74.8504 172.656 75.0084 172.885 75.1668 170.948 75.3248 167.542 75.4832 166.057 75.6416 166.525 75.7996 167.998 75.958 168.457 76.116 167.768 76.4324 165.493 76.5908 164.498 76.7493 164.768 76.9072 164.245 77.0657 164.319 77.2236 163.583 77.3821 162.592 77.54 162.957 78.0149 165.615 78.1733 168.189 78.4897 176.404 78.6477 178.073 78.8061 171.991 78.9645 170.129 79.1225 169.271 79.2809 168.718 79.4389 170.519 79.5973 173.105 79.7553 173.86 79.9137 173.676 80.0721 173.736 80.2301 174.327 80.5465 175.849 80.7049 176.219 80.8634 176.405 81.0213 176.495 81.1798 176.519 81.3377 176.434 81.4962 176.266 81.8126 176.088 82.2874 175.534 84.0278 173.799 84.3442 173.209 85.1355 171.716 85.2939 171.503 85.6103 170.973 85.7682 170.855 86.2431 170.123 86.7179 169.184 87.0343 168.774 87.3507 168.488 87.6671 168.424 88.1419 168.515 88.6168 168.589 88.7747 168.557 89.0911 168.338 89.2495 168.373 90.0408 169.302 90.1988 169.684 90.6736 171.152 90.832 171.228 90.99 171.403 91.6232 172.406 91.9396 172.398 92.256 172.288 92.414 172.317 92.5724 172.421 92.7309 172.789 92.8888 154.454 93.0473 175.339 93.2052 182.015 93.3637 175.817 93.5216 175.894 93.6801 168.945 93.8385 167.482 93.9965 164.796 94.1549 167.897 94.3129 168.386 94.4713 169.3 94.6293 169.049 94.7877 168.994 94.9461 169.281 95.1041 169.312 95.2625 170.006 95.4205 170.408 95.5789 171.4 95.8953 170.41 96.0537 167.162 96.2117 169.498 96.3701 173.625 96.5281 173.57 96.6865 172.985 96.8445 173.195 97.0029 173.065 97.3193 173.46 97.4778 173.484 97.6357 173.308 97.7942 173.317 98.1106 173.474 98.269 173.492 98.5854 173.45 98.9018 173.53 99.3766 173.518 100.326 173.675 100.642 173.613 101.433 173.695 102.699 173.601 103.016 173.643 103.649 173.626 104.756 173.64 105.231 173.658 106.18 173.523 106.655 173.624 106.814 173.61 106.972 173.523 107.288 173.521 107.763 173.362 107.921 173.182 108.079 173.111 108.238 173.275 108.396 173.295 108.554 173.199 109.345 173.174 109.503 173.245 109.82 173.155 109.978 173.03 110.294 172.951 110.611 173.113 110.769 173.159 111.402 173.119 111.561 172.98 111.718 172.938 112.035 173.12 112.352 173.053 112.668 173.095 112.826 173.307 113.143 173.064 113.459 171.386 113.617 170.436 113.776 169.867 113.934 169.937 114.092 170.071 114.251 169.878 114.725 167.853 114.883 167.585 115.041 168.092 115.2 167.341 115.516 166.835 115.833 165.707 115.991 166.205 116.149 165.401 116.307 165.346 116.466 166.126 116.624 165.023 116.782 165.525 116.94 165.658 117.573 178.514 117.731 179.456 118.206 165.407 118.365 167.408 118.523 170.225 118.681 171.67 118.839 172.185 118.997 171.766 119.155 171.779 119.314 172.417 119.63 174.212 119.947 175.395 120.105 175.658 120.263 175.723 120.738 175.523 121.213 175.193 121.529 174.809 122.004 174.266 122.478 173.837 122.795 173.585 124.219 172 124.536 171.499 125.327 170.401 125.643 169.993 125.801 169.793 126.118 169.655 126.751 169.219 127.067 168.992 127.384 168.67 127.859 167.987 128.175 167.949 128.808 167.806 128.966 167.841 129.125 168.119 129.283 168.646 129.599 169.901 130.232 172.047 130.549 173.268 130.707 173.49 130.865 173.296 131.023 172.972 131.181 162.097 131.34 172.9 131.498 175.508 131.656 176.802 131.814 175.168 131.973 176.748 132.131 175.04 132.289 165.299 132.447 165.21 132.605 165.89 132.764 166.985 132.922 167.618 133.08 167.168 133.238 169.327 133.397 168.931 133.555 169.281 133.713 168.483 133.871 169.605 134.029 172.374 134.188 170.001 134.346 169.643 134.504 166.699 134.821 173.555 134.979 173.747 135.137 173.33 135.295 173.476 135.612 173.442 135.928 173.523 136.087 173.442 136.403 173.427 136.562 173.325 136.72 173.373 136.878 173.545 137.036 173.596 137.194 173.58 137.511 173.646 138.144 173.483 138.935 173.588 142.258 173.646 143.049 173.646 143.682 173.691 143.84 173.675 143.84 173.675" stroke="#1B4F72" stroke-width="1.32756" stroke-linecap="square" stroke-linejoin="round" stroke-opacity="0.45" fill="none" transform="matrix(1.082 0 0 1 0.0418186 0)"/></g><path d="M0 0 0-1.77008" stroke="#000000" stroke-width="0.44252" stroke-linejoin="round" fill="none" transform="matrix(1.082 0 0 1 30.8658 204.195)"/><text font-family="Times New Roman,Times New Roman_MSFontService,sans-serif" font-weight="400" font-size="16" transform="matrix(0.478808 0 0 0.44252 28.9506 211)">0</text><path d="M0 0 0-1.77008" stroke="#000000" stroke-width="0.44252" stroke-linejoin="round" fill="none" transform="matrix(1.082 0 0 1 65.1075 204.195)"/><text font-family="Times New Roman,Times New Roman_MSFontService,sans-serif" font-weight="400" font-size="16" transform="matrix(0.478808 0 0 0.44252 57.4466 211)">1000</text><path d="M0 0 0-1.77008" stroke="#000000" stroke-width="0.44252" stroke-linejoin="round" fill="none" transform="matrix(1.082 0 0 1 99.3495 204.195)"/><text font-family="Times New Roman,Times New Roman_MSFontService,sans-serif" font-weight="400" font-size="16" transform="matrix(0.478808 0 0 0.44252 91.6885 211)">2000</text><path d="M0 0 0-1.77008" stroke="#000000" stroke-width="0.44252" stroke-linejoin="round" fill="none" transform="matrix(1.082 0 0 1 133.591 204.195)"/><text font-family="Times New Roman,Times New Roman_MSFontService,sans-serif" font-weight="400" font-size="16" transform="matrix(0.478808 0 0 0.44252 125.93 211)">3000</text><text font-family="Times New Roman,Times New Roman_MSFontService,sans-serif" font-weight="400" font-size="18" transform="matrix(0.478808 0 0 0.44252 75.3526 222)">Time </text><text font-family="Times New Roman,Times New Roman_MSFontService,sans-serif" font-weight="400" font-size="18" transform="matrix(0.478808 0 0 0.44252 95.3924 222)">(</text><text font-family="Times New Roman,Times New Roman_MSFontService,sans-serif" font-weight="400" font-size="18" transform="matrix(0.478808 0 0 0.44252 98.2625 222)">ms</text><text font-family="Times New Roman,Times New Roman_MSFontService,sans-serif" font-weight="400" font-size="18" transform="matrix(0.478808 0 0 0.44252 108.32 222)">)</text><path d="M0 0 1.77008 0" stroke="#000000" stroke-width="0.44252" stroke-linejoin="round" fill="none" transform="matrix(1.082 0 0 1 30.8658 192.226)"/><text font-family="Times New Roman,Times New Roman_MSFontService,sans-serif" font-weight="400" font-size="16" transform="matrix(0.478808 0 0 0.44252 13.2322 195)">-</text><text font-family="Times New Roman,Times New Roman_MSFontService,sans-serif" font-weight="400" font-size="16" transform="matrix(0.478808 0 0 0.44252 15.7834 195)">2</text><text font-family="Times New Roman,Times New Roman_MSFontService,sans-serif" font-weight="400" font-size="16" transform="matrix(0.478808 0 0 0.44252 19.6139 195)">.</text><text font-family="Times New Roman,Times New Roman_MSFontService,sans-serif" font-weight="400" font-size="16" transform="matrix(0.478808 0 0 0.44252 21.5291 195)">50</text><path d="M0 0 1.77008 0" stroke="#000000" stroke-width="0.44252" stroke-linejoin="round" fill="none" transform="matrix(1.082 0 0 1 30.8658 178.958)"/><text font-family="Times New Roman,Times New Roman_MSFontService,sans-serif" font-weight="400" font-size="16" transform="matrix(0.478808 0 0 0.44252 15.7834 181)">0</text><text font-family="Times New Roman,Times New Roman_MSFontService,sans-serif" font-weight="400" font-size="16" transform="matrix(0.478808 0 0 0.44252 19.6139 181)">.</text><text font-family="Times New Roman,Times New Roman_MSFontService,sans-serif" font-weight="400" font-size="16" transform="matrix(0.478808 0 0 0.44252 21.5291 181)">00</text><path d="M0 0 1.77008 0" stroke="#000000" stroke-width="0.44252" stroke-linejoin="round" fill="none" transform="matrix(1.082 0 0 1 30.8658 165.689)"/><text font-family="Times New Roman,Times New Roman_MSFontService,sans-serif" font-weight="400" font-size="16" transform="matrix(0.478808 0 0 0.44252 15.7834 168)">2</text><text font-family="Times New Roman,Times New Roman_MSFontService,sans-serif" font-weight="400" font-size="16" transform="matrix(0.478808 0 0 0.44252 19.6139 168)">.</text><text font-family="Times New Roman,Times New Roman_MSFontService,sans-serif" font-weight="400" font-size="16" transform="matrix(0.478808 0 0 0.44252 21.5291 168)">50</text><path d="M0 0 1.77008 0" stroke="#000000" stroke-width="0.44252" stroke-linejoin="round" fill="none" transform="matrix(1.082 0 0 1 30.8658 152.421)"/><text font-family="Times New Roman,Times New Roman_MSFontService,sans-serif" font-weight="400" font-size="16" transform="matrix(0.478808 0 0 0.44252 15.7834 155)">5</text><text font-family="Times New Roman,Times New Roman_MSFontService,sans-serif" font-weight="400" font-size="16" transform="matrix(0.478808 0 0 0.44252 19.6139 155)">.</text><text font-family="Times New Roman,Times New Roman_MSFontService,sans-serif" font-weight="400" font-size="16" transform="matrix(0.478808 0 0 0.44252 21.5291 155)">00</text><text font-family="Times New Roman,Times New Roman_MSFontService,sans-serif" font-style="italic" font-weight="400" font-size="18" transform="matrix(2.93185e-17 -0.44252 0.478808 2.70965e-17 9.45758 178)">g</text><g><path d="M28.4879 173.405 28.8043 173.77 28.9626 173.894 29.1208 173.834 29.279 173.705 29.5955 173.665 30.3867 173.753 31.3361 173.734 31.8108 173.708 32.602 173.677 32.7602 173.558 33.0767 173.642 33.2349 173.52 33.3931 173.019 34.026 173.274 34.3425 173.206 34.9755 173.062 35.1337 173.045 35.7666 173.149 35.9248 173.106 36.0831 173.003 36.2413 173.02 36.3996 173.103 36.5578 172.783 36.716 172.283 37.1907 170.29 37.349 170.09 37.5072 170.072 37.6654 169.82 37.8237 169.337 37.9819 168.68 38.6148 167.021 38.9313 165.657 39.0895 165.322 39.2478 165.341 39.406 165.452 39.5642 165.338 39.8807 164.71 40.0389 165.117 40.5136 167.876 40.9883 179 41.1466 178.115 41.3048 171.969 41.463 168.079 41.6213 168.053 41.7795 169.284 41.9377 171.644 42.096 173.215 42.2542 173.23 42.4124 173.338 42.7289 174.091 42.8871 174.42 43.0454 174.564 43.2036 175.165 43.3618 175.474 43.5201 175.487 43.8365 175.381 43.9948 175.4 44.3113 175.027 44.4697 174.667 44.7861 174.278 45.1025 174.036 45.4189 173.868 45.7353 173.677 45.8937 173.628 46.2101 173.222 46.5265 172.74 47.9505 170.616 48.2669 170.036 48.5833 169.806 50.1658 169.266 50.4822 168.867 51.1154 167.6 51.2734 167.645 51.5898 167.956 51.7482 167.975 51.9062 168.066 52.0646 168.292 52.381 168.987 52.5395 169.202 53.3307 171.774 53.6471 172.221 53.8051 172.418 53.9635 172.315 54.1219 172.01 54.2799 171.848 54.4383 172.074 54.5963 171.487 54.7547 160.424 54.9127 166.74 55.0711 181.427 55.2295 178.71 55.7039 168.543 55.8623 169.004 56.0203 168.911 56.1787 168.438 56.3372 168.724 56.4951 169.458 56.6536 169.696 56.8115 168.915 56.97 168.955 57.1279 169.541 57.6028 172.288 57.7612 172.771 57.9192 172.96 58.0776 172.656 58.2356 172.139 58.5524 173.822 58.7104 173.451 58.8688 170.899 59.0268 171.378 59.3432 172.645 59.5016 173.005 59.818 173.14 59.9764 173.166 60.1344 173.334 60.9256 173.51 61.2421 173.506 61.4005 173.463 62.3497 173.804 62.5081 173.898 62.6665 173.922 62.9829 173.69 63.2993 173.876 63.6157 173.733 63.7741 173.873 63.9321 173.919 64.2485 173.639 64.7234 173.638 64.8818 173.576 65.5146 173.602 65.6726 173.598 65.831 173.653 65.9894 173.65 66.1474 173.594 66.3058 173.608 66.4638 173.684 66.9386 173.657 67.097 173.745 67.255 173.733 67.5714 173.651 67.7298 173.689 68.0462 173.643 68.5211 173.711 68.8375 173.695 68.9954 173.723 69.3123 173.702 69.6287 173.784 70.1031 173.681 70.2615 173.738 70.4199 173.742 70.7363 173.577 70.8943 173.588 71.0527 173.684 71.2111 173.671 71.5275 173.36 71.6855 173.335 71.8439 173.407 72.1603 173.253 73.1095 173.13 73.4264 172.859 73.5844 172.817 74.2172 172.321 74.3756 171.988 74.534 172.014 74.8504 172.538 75.0084 172.29 75.1668 171.203 75.4832 167.73 75.6416 167.776 75.7996 168.326 75.958 168.446 76.116 168.034 76.5908 165.356 76.7493 165.104 76.9072 164.687 77.0657 164.729 77.3821 163.232 77.54 163.352 77.8569 164.96 78.0149 166.259 78.1733 168.571 78.3313 172.053 78.4897 174.367 78.6477 174.413 78.9645 170.647 79.1225 169.454 79.2809 169.424 79.4389 170.959 79.5973 173.262 79.7553 174.223 79.9137 174.369 80.2301 174.906 80.3885 175.161 80.5465 175.746 80.7049 176.042 81.0213 176.022 81.1798 176.048 81.4962 176.308 81.6541 176.265 81.8126 176.098 81.971 175.851 82.129 175.822 82.7618 174.959 82.9202 174.895 83.0786 174.571 83.553 174.297 83.8694 173.926 84.0278 173.808 84.1862 173.588 84.977 172.04 85.9267 170.586 86.0847 170.439 86.5595 169.712 86.8759 169.177 87.1923 168.995 87.5091 168.882 88.6168 168.908 88.7747 168.862 89.0911 168.623 89.2495 168.632 89.4075 168.789 89.7244 169.255 89.8824 169.431 90.3572 170.402 90.5156 170.967 90.6736 171.204 90.99 171.386 91.4648 172.209 91.6232 172.391 91.7812 172.477 91.9396 172.433 92.256 172.148 92.414 172.237 92.5724 172.529 92.7309 172.365 92.8888 155.681 93.0473 175.603 93.2052 181.556 93.3637 176.252 93.5216 175.132 93.6801 169.517 93.9965 165.424 94.1549 167.96 94.4713 169.785 94.6293 169.54 94.7877 169.606 94.9461 169.996 95.1041 169.961 95.4205 170.812 95.5789 171.551 95.8953 170.608 96.0537 168.03 96.2117 169.849 96.3701 173.568 96.5281 173.503 96.6865 173.339 96.8445 173.532 97.0029 173.376 97.1614 173.411 97.3193 173.577 97.4778 173.65 97.6357 173.534 98.427 173.614 99.851 173.38 100.326 173.435 100.642 173.695 100.959 173.755 101.275 174.034 101.433 174.076 101.592 174.17 101.75 174.335 101.908 174.388 102.225 174.046 102.541 174.093 102.857 173.659 103.174 173.754 103.491 173.584 103.965 173.644 104.124 173.583 104.282 173.585 104.598 173.671 104.915 173.65 105.231 173.701 106.022 173.666 106.339 173.73 106.655 173.684 106.972 173.711 107.763 173.655 108.238 173.384 108.396 173.38 108.712 173.301 109.029 173.249 109.187 173.184 109.345 173.009 109.503 173.076 109.662 173.213 109.82 173.191 110.136 172.926 110.294 172.895 110.928 173.134 111.244 173.113 111.718 173.134 112.193 172.95 112.668 173.08 112.985 173.099 113.143 172.918 113.459 172.145 113.776 171.057 113.934 170.814 114.092 170.807 114.251 170.502 114.883 168.535 115.041 168.45 115.358 167.644 115.516 167.409 115.833 166.425 115.991 166.726 116.149 166.116 116.307 166.009 116.466 166.083 116.624 165.501 116.94 166.225 117.257 172.192 117.573 177.627 117.731 178.15 118.048 170.834 118.206 165.981 118.365 167.819 118.523 170.702 118.681 172.329 118.839 172.691 118.997 172.025 119.155 172.246 119.314 172.633 119.472 173.231 119.63 173.622 119.947 174.965 120.105 175.225 120.263 175.353 120.738 175.359 121.371 174.865 121.688 174.421 122.004 174.166 122.32 173.853 122.637 173.606 123.428 172.865 125.643 170.211 125.801 170.081 126.118 170.066 126.276 170.038 126.909 169.478 127.226 169.21 128.017 168.283 128.333 168.171 128.65 168.056 128.966 168.436 129.125 168.83 129.283 169.045 130.549 173.311 130.707 173.442 130.865 173.435 131.023 173.27 131.181 162.416 131.34 172.623 131.498 175.562 131.656 176.798 131.814 175.255 131.973 176.679 132.131 174.112 132.289 166.498 132.447 165.247 132.922 168.181 133.08 167.939 133.238 169.755 133.397 169.58 133.555 169.891 133.713 169.248 133.871 170.189 134.029 172.137 134.188 170.584 134.346 170.043 134.504 167.125 134.663 169.785 134.821 173.292 134.979 173.222 135.137 172.683 135.295 172.704 135.612 172.595 135.928 172.753 136.087 173.029 136.245 173.426 136.403 173.665 136.562 173.688 137.036 173.951 137.352 173.919 137.827 174.005 138.144 173.989 138.46 173.974 139.093 173.788 139.568 173.883 139.726 173.797 140.042 173.774 140.201 173.796 140.517 173.769 140.992 173.935 141.15 173.925 141.308 173.972 141.783 173.919 142.1 173.815 142.258 173.829 143.207 173.532 143.365 173.492 143.524 173.519 143.84 173.408 143.84 173.408" stroke="#C0392B" stroke-width="0.796535" stroke-linecap="square" stroke-linejoin="round" fill="none" transform="matrix(1.082 0 0 1 0.0418186 0)"/></g><path d="M28.4879 204.194 28.4879 147.966" stroke="#000000" stroke-width="0.44252" stroke-linecap="square" fill="none" transform="matrix(1.082 0 0 1 0.0418186 0)"/><path d="M143.84 204.194 143.84 147.966" stroke="#000000" stroke-width="0.44252" stroke-linecap="square" fill="none" transform="matrix(1.082 0 0 1 0.0418186 0)"/><path d="M28.4879 204.194 143.84 204.194" stroke="#000000" stroke-width="0.44252" stroke-linecap="square" fill="none" transform="matrix(1.082 0 0 1 0.0418186 0)"/><path d="M28.4879 147.966 143.84 147.966" stroke="#000000" stroke-width="0.44252" stroke-linecap="square" fill="none" transform="matrix(1.082 0 0 1 0.0418186 0)"/><text font-family="Times New Roman,Times New Roman_MSFontService,sans-serif" font-weight="700" font-size="19" transform="matrix(0.478808 0 0 0.44252 88.2231 230)">(</text><text font-family="Times New Roman,Times New Roman_MSFontService,sans-serif" font-weight="700" font-size="19" transform="matrix(0.478808 0 0 0.44252 91.2526 230)">c</text><text font-family="Times New Roman,Times New Roman_MSFontService,sans-serif" font-weight="700" font-size="19" transform="matrix(0.478808 0 0 0.44252 95.2904 230)">)</text><text font-family="Times New Roman,Times New Roman_MSFontService,sans-serif" font-weight="700" font-size="22" transform="matrix(0.478808 0 0 0.44252 81.2795 144)">AccZ</text><path d="M190.004 204.194 305.356 204.194 305.356 147.966 190.004 147.966Z" fill="#FFFFFF" transform="matrix(1.082 0 0 1 0.0418186 0)"/><g><path d="M195.247 192.3 196.306 195.638 197.365 197.487 198.425 198.862 199.484 199.166 200.543 199.53 201.603 199.774 202.662 199.64 203.721 199.848 204.78 200.095 205.839 200.156 206.899 200.225 207.958 200.275 209.017 200.31 210.076 200.475 211.136 200.203 212.195 200.53 213.254 200.618 214.314 200.58 215.372 200.767 216.432 200.614 217.491 200.672 218.55 200.804 219.61 200.712 220.669 200.783 221.728 200.853 222.787 200.639 223.847 200.896 224.906 200.684 225.965 200.833 227.024 200.711 228.084 200.943 229.143 200.992 230.202 200.934 231.262 200.805 232.321 200.884 233.38 200.97 234.439 200.911 235.498 200.899 236.558 201.002 237.617 201.03 238.676 200.984 239.735 201.013 240.795 201.049 241.854 201.096 242.913 201.017 243.973 201.083 245.031 201.18 246.091 201.097 247.15 200.988 248.209 201.162 249.269 201.054 250.328 201.131 251.387 201.109 252.446 201.116 253.506 201.127 254.565 201.095 255.624 201.148 256.683 201.155 257.742 201.194 258.802 201.156 259.861 201.081 260.921 201.19 261.98 201.103 263.039 201.184 264.098 201.137 265.157 201.24 266.217 201.24 267.276 201.188 268.335 201.076 269.394 201.077 270.454 201.174 271.513 201.182 272.572 201.188 273.632 201.124 274.69 201.204 275.75 201.203 276.809 201.126 277.868 201.216 278.928 201.288 279.987 201.194 281.046 201.23 282.105 201.222 283.165 201.163 284.224 201.219 285.283 201.284 286.342 201.242 287.401 201.225 288.461 201.264 289.52 201.218 290.579 201.255 291.639 201.194 292.698 201.186 293.757 201.236 294.816 201.221 295.876 201.24 296.935 201.204 297.994 201.216 299.053 201.204 300.113 201.334" stroke="#C0392B" stroke-width="1.1063" stroke-linejoin="round" stroke-dasharray="4.09331 1.77008" fill="none" transform="matrix(1.082 0 0 1 0.0418186 0)"/></g><path d="M0 0 0-1.77008" stroke="#000000" stroke-width="0.44252" stroke-linejoin="round" fill="none" transform="matrix(1.082 0 0 1 210.154 204.195)"/><text font-family="Times New Roman,Times New Roman_MSFontService,sans-serif" font-weight="400" font-size="16" transform="matrix(0.478808 0 0 0.44252 208.239 211)">0</text><path d="M0 0 0-1.77008" stroke="#000000" stroke-width="0.44252" stroke-linejoin="round" fill="none" transform="matrix(1.082 0 0 1 238.807 204.195)"/><text font-family="Times New Roman,Times New Roman_MSFontService,sans-serif" font-weight="400" font-size="16" transform="matrix(0.478808 0 0 0.44252 234.976 211)">25</text><path d="M0 0 0-1.77008" stroke="#000000" stroke-width="0.44252" stroke-linejoin="round" fill="none" transform="matrix(1.082 0 0 1 267.459 204.195)"/><text font-family="Times New Roman,Times New Roman_MSFontService,sans-serif" font-weight="400" font-size="16" transform="matrix(0.478808 0 0 0.44252 263.629 211)">50</text><path d="M0 0 0-1.77008" stroke="#000000" stroke-width="0.44252" stroke-linejoin="round" fill="none" transform="matrix(1.082 0 0 1 296.112 204.195)"/><text font-family="Times New Roman,Times New Roman_MSFontService,sans-serif" font-weight="400" font-size="16" transform="matrix(0.478808 0 0 0.44252 292.282 211)">75</text><path d="M0 0 0-1.77008" stroke="#000000" stroke-width="0.44252" stroke-linejoin="round" fill="none" transform="matrix(1.082 0 0 1 324.765 204.195)"/><text font-family="Times New Roman,Times New Roman_MSFontService,sans-serif" font-weight="400" font-size="16" transform="matrix(0.478808 0 0 0.44252 319.019 211)">100</text><text font-family="Times New Roman,Times New Roman_MSFontService,sans-serif" font-weight="400" font-size="18" transform="matrix(0.478808 0 0 0.44252 257.024 222)">Epoch</text><path d="M0 0 1.77008 0" stroke="#000000" stroke-width="0.44252" stroke-linejoin="round" fill="none" transform="matrix(1.082 0 0 1 205.627 204.098)"/><text font-family="Times New Roman,Times New Roman_MSFontService,sans-serif" font-weight="400" font-size="16" transform="matrix(0.478808 0 0 0.44252 190.544 207)">0</text><text font-family="Times New Roman,Times New Roman_MSFontService,sans-serif" font-weight="400" font-size="16" transform="matrix(0.478808 0 0 0.44252 194.375 207)">.</text><text font-family="Times New Roman,Times New Roman_MSFontService,sans-serif" font-weight="400" font-size="16" transform="matrix(0.478808 0 0 0.44252 196.29 207)">00</text><path d="M0 0 1.77008 0" stroke="#000000" stroke-width="0.44252" stroke-linejoin="round" fill="none" transform="matrix(1.082 0 0 1 205.627 173.99)"/><text font-family="Times New Roman,Times New Roman_MSFontService,sans-serif" font-weight="400" font-size="16" transform="matrix(0.478808 0 0 0.44252 190.544 176)">0</text><text font-family="Times New Roman,Times New Roman_MSFontService,sans-serif" font-weight="400" font-size="16" transform="matrix(0.478808 0 0 0.44252 194.375 176)">.</text><text font-family="Times New Roman,Times New Roman_MSFontService,sans-serif" font-weight="400" font-size="16" transform="matrix(0.478808 0 0 0.44252 196.29 176)">01</text><text font-family="Times New Roman,Times New Roman_MSFontService,sans-serif" font-weight="400" font-size="18" transform="matrix(2.93185e-17 -0.44252 0.478808 2.70965e-17 186.785 193)">MSE Loss</text><g><path d="M195.247 150.522 196.306 194.856 197.365 197.165 198.425 198.497 199.484 199.095 200.543 199.47 201.603 199.708 202.662 199.93 203.721 200.109 204.78 200.203 205.839 200.329 206.899 200.412 207.958 200.502 209.017 200.579 210.076 200.654 211.136 200.638 212.195 200.71 213.254 200.758 214.314 200.801 215.372 200.859 216.432 200.865 217.491 200.913 218.55 200.97 219.61 200.981 220.669 200.974 221.728 201.031 222.787 201.044 223.847 201.049 224.906 201.119 225.965 201.085 227.024 201.157 228.084 201.102 229.143 201.195 230.202 201.176 231.262 201.206 232.321 201.207 233.38 201.208 234.439 201.253 235.498 201.29 236.558 201.303 237.617 201.286 238.676 201.267 239.735 201.299 240.795 201.312 241.854 201.376 242.913 201.364 243.973 201.319 245.031 201.362 246.091 201.387 247.15 201.342 248.209 201.395 249.269 201.382 250.328 201.362 251.387 201.403 252.446 201.422 253.506 201.41 254.565 201.43 255.624 201.448 256.683 201.43 257.742 201.469 258.802 201.446 259.861 201.464 260.921 201.458 261.98 201.473 263.039 201.486 264.098 201.488 265.157 201.459 266.217 201.485 267.276 201.469 268.335 201.509 269.394 201.511 270.454 201.53 271.513 201.523 272.572 201.484 273.632 201.52 274.69 201.528 275.75 201.507 276.809 201.551 277.868 201.557 278.928 201.505 279.987 201.565 281.046 201.566 282.105 201.529 283.165 201.579 284.224 201.535 285.283 201.576 286.342 201.543 287.401 201.578 288.461 201.59 289.52 201.533 290.579 201.596 291.639 201.583 292.698 201.575 293.757 201.582 294.816 201.578 295.876 201.612 296.935 201.59 297.994 201.619 299.053 201.639 300.113 201.602" stroke="#1B4F72" stroke-width="1.1063" stroke-linecap="square" stroke-linejoin="round" fill="none" transform="matrix(1.082 0 0 1 0.0418186 0)"/></g><path d="M190.004 204.194 190.004 147.966" stroke="#000000" stroke-width="0.44252" stroke-linecap="square" fill="none" transform="matrix(1.082 0 0 1 0.0418186 0)"/><path d="M305.356 204.194 305.356 147.966" stroke="#000000" stroke-width="0.44252" stroke-linecap="square" fill="none" transform="matrix(1.082 0 0 1 0.0418186 0)"/><path d="M190.004 204.194 305.356 204.194" stroke="#000000" stroke-width="0.44252" stroke-linecap="square" fill="none" transform="matrix(1.082 0 0 1 0.0418186 0)"/><path d="M190.004 147.966 305.356 147.966" stroke="#000000" stroke-width="0.44252" stroke-linecap="square" fill="none" transform="matrix(1.082 0 0 1 0.0418186 0)"/><text font-family="Times New Roman,Times New Roman_MSFontService,sans-serif" font-weight="700" font-size="19" transform="matrix(0.478808 0 0 0.44252 262.473 230)">(</text><text font-family="Times New Roman,Times New Roman_MSFontService,sans-serif" font-weight="700" font-size="19" transform="matrix(0.478808 0 0 0.44252 265.503 230)">d</text><text font-family="Times New Roman,Times New Roman_MSFontService,sans-serif" font-weight="700" font-size="19" transform="matrix(0.478808 0 0 0.44252 270.562 230)">)</text><text font-family="Times New Roman,Times New Roman_MSFontService,sans-serif" font-weight="700" font-size="22" transform="matrix(0.478808 0 0 0.44252 236.958 144)">Training Loss</text><path d="M248.928 156.816 256.008 156.816 263.088 156.816" stroke="#1B4F72" stroke-width="1.1063" stroke-linecap="square" stroke-linejoin="round" fill="none" transform="matrix(1.082 0 0 1 0.0418186 0)"/><text font-family="Times New Roman,Times New Roman_MSFontService,sans-serif" font-weight="400" font-size="16" transform="matrix(0.478808 0 0 0.44252 290.833 159)">Train Loss</text><path d="M248.928 166.827 256.008 166.827 263.088 166.827" stroke="#C0392B" stroke-width="1.1063" stroke-linejoin="round" stroke-dasharray="4.09331 1.77008" fill="none" transform="matrix(1.082 0 0 1 0.0418186 0)"/><text font-family="Times New Roman,Times New Roman_MSFontService,sans-serif" font-weight="400" font-size="16" transform="matrix(0.478808 0 0 0.44252 290.833 169)">Val Loss</text><path d="M91.7498 8.82827 99.2726 8.82827 106.795 8.82827" stroke="#1B4F72" stroke-width="1.32756" stroke-linecap="square" stroke-linejoin="round" stroke-opacity="0.45" fill="none" transform="matrix(1.082 0 0 1 0.0418186 0)"/><text font-family="Times New Roman,Times New Roman_MSFontService,sans-serif" font-weight="400" font-size="17" transform="matrix(0.478808 0 0 0.44252 122.107 11)">Original</text><path d="M152.929 8.82827 160.452 8.82827 167.975 8.82827" stroke="#C0392B" stroke-width="0.796535" stroke-linecap="square" stroke-linejoin="round" fill="none" transform="matrix(1.082 0 0 1 0.0418186 0)"/><text font-family="Times New Roman,Times New Roman_MSFontService,sans-serif" font-weight="400" font-size="17" transform="matrix(0.478808 0 0 0.44252 188.303 11)">Reconstructed</text></g></svg>